<svg id="svg" version="1.1" xmlns="http://www.w3.org/2000/svg" xmlns:xlink="http://www.w3.org/1999/xlink" width="400" height="400" viewBox="0, 0, 400,400"><g id="svgg"><path id="path0" d="M180.859 17.259 C 29.403 32.890,-37.947 217.974,67.929 327.602 C 163.446 426.503,331.296 388.330,374.221 257.945 C 415.940 131.221,313.397 3.581,180.859 17.259 M224.219 35.578 C 335.448 52.114,398.898 173.476,348.712 273.697 C 297.649 375.668,163.215 397.673,82.771 317.229 C -17.788 216.670,45.364 47.191,188.281 34.075 C 194.862 33.471,215.989 34.355,224.219 35.578 M112.888 133.590 C 114.006 135.399,198.934 205.796,200.000 205.798 C 201.056 205.800,286.016 135.363,287.127 133.565 C 287.424 133.084,255.961 132.812,200.000 132.813 C 142.113 132.813,112.571 133.076,112.888 133.590 M100.000 199.689 L 100.000 255.741 101.758 254.157 C 102.725 253.286,117.402 241.048,134.375 226.960 C 151.348 212.873,165.684 200.933,166.234 200.427 C 167.065 199.663,123.250 162.013,101.801 145.060 L 100.000 143.637 100.000 199.689 M266.406 171.484 C 248.145 186.699,233.203 199.326,233.203 199.543 C 233.203 199.760,248.145 212.388,266.406 227.606 L 299.609 255.275 299.814 227.189 C 299.927 211.742,299.927 186.665,299.814 171.462 L 299.609 143.820 266.406 171.484 M145.313 237.987 C 127.051 253.262,111.992 266.081,111.849 266.474 C 111.693 266.902,146.956 267.188,200.000 267.188 C 252.199 267.188,288.305 266.899,288.151 266.483 C 287.775 265.465,221.434 210.153,220.611 210.172 C 220.232 210.180,215.527 213.865,210.156 218.359 C 204.785 222.854,200.215 226.532,200.000 226.532 C 199.785 226.532,195.215 222.854,189.844 218.359 C 184.473 213.865,179.727 210.193,179.297 210.200 C 178.867 210.208,163.574 222.712,145.313 237.987 " stroke="none" fill="#FFFFFF" fill-rule="evenodd"></path></g></svg>