<svg id="svg" version="1.1" xmlns="http://www.w3.org/2000/svg" xmlns:xlink="http://www.w3.org/1999/xlink" width="400" height="400" viewBox="0, 0, 400,400"><g id="svgg"><path id="path0" fill="#ffffff" d="M175.000 1.185 C 11.863 21.386,-58.381 221.347,56.207 339.352 C 162.324 448.634,347.623 403.882,391.747 258.315 C 433.720 119.840,318.701 -16.609,175.000 1.185 M131.964 108.255 C 134.592 109.036,137.376 110.664,139.646 112.748 C 160.019 131.451,132.942 162.706,112.191 144.440 C 95.105 129.400,110.192 101.790,131.964 108.255 M146.875 231.250 L 146.875 292.969 125.781 292.969 L 104.688 292.969 104.688 231.250 L 104.688 169.531 125.781 169.531 L 146.875 169.531 146.875 231.250 M206.250 177.734 C 206.250 187.342,206.099 187.234,211.392 181.385 C 225.573 165.714,262.726 165.103,277.757 180.295 C 288.375 191.025,289.255 196.145,289.642 249.414 L 289.959 292.969 271.542 292.969 L 253.125 292.969 253.125 257.070 C 253.125 204.822,251.122 199.564,231.250 199.637 C 210.450 199.713,207.867 206.796,207.831 263.867 L 207.813 292.969 190.234 292.969 L 172.656 292.969 172.656 231.250 L 172.656 169.531 189.453 169.531 L 206.250 169.531 206.250 177.734 " stroke="none" fill-rule="evenodd"></path></g></svg>